# xmcd
#
# Track frame offsets: 
#        150
#        17077
#        32522
#        51520
#        67935
#        85465
#        102103
#        118574
#        135687
#        154719
#        172604
#        189540
#        208271
#
# Disc length: 2978 seconds
#
# Revision: 0
# Processed by: cddbd v1.5.2PL0 Copyright (c) Steve Scherf et al.
# Submitted via: ExactAudioCopy v1.0b3
#
DISCID=a80ba00d
DTITLE=Johnny Reid - Revival
DYEAR=2017
DGENRE=Country
TTITLE0=Soul Train
TTITLE1=Heart of a Woman
TTITLE2=Memphis
TTITLE3=Whiskey Kisses
TTITLE4=Shoulders
TTITLE5=She Just Wants to Dance
TTITLE6=The Light in You
TTITLE7=Never Love Another
TTITLE8=Blank Page
TTITLE9=Every Time I Roll the Dice
TTITLE10=Cry No More
TTITLE11=Regret
TTITLE12=Don't Let the Green Grass Fool You (Bonus Track)
EXTD=
EXTT0=
EXTT1=
EXTT2=
EXTT3=
EXTT4=
EXTT5=
EXTT6=
EXTT7=
EXTT8=
EXTT9=
EXTT10=
EXTT11=
EXTT12=
PLAYORDER=
